<svg width="51" height="36" viewBox="0 0 51 36" fill="none" xmlns="http://www.w3.org/2000/svg">
<ellipse cx="5.07494" cy="6.25077" rx="5.07494" ry="6.25077" transform="matrix(0.891643 -0.452739 0.581443 0.813587 0.293335 14.7421)" fill="#634EC0"/>
<ellipse cx="4.88893" cy="7.0217" rx="4.88893" ry="7.0217" transform="matrix(0.97986 -0.199684 0.275713 0.96124 12.7 1.95248)" fill="#634EC0"/>
<ellipse cx="4.52414" cy="5.95921" rx="4.52414" ry="5.95921" transform="matrix(0.975431 0.220306 -0.30295 0.953006 30.8752 1.7357)" fill="#634EC0"/>
<ellipse cx="4.54353" cy="5.66046" rx="4.54353" ry="5.66046" transform="matrix(0.875652 0.482943 -0.613196 0.789931 42.1431 12.1518)" fill="#634EC0"/>
<path d="M34.3951 24.6438C27.8046 11.4502 19.2917 19.1465 15.8592 24.6438C10.0924 35.0599 20.3215 35.3491 26.1569 34.1917C38.5142 37.6637 36.798 29.2731 34.3951 24.6438Z" fill="#634EC0" stroke="#634EC0" stroke-width="1.72737"/>
</svg>
