<svg width="26" height="28" viewBox="0 0 26 28" fill="none" xmlns="http://www.w3.org/2000/svg">
<path d="M12.999 17.5468C15.1078 17.5468 16.8173 15.8373 16.8173 13.7285C16.8173 11.6197 15.1078 9.91016 12.999 9.91016C10.8902 9.91016 9.18066 11.6197 9.18066 13.7285C9.18066 15.8373 10.8902 17.5468 12.999 17.5468Z" stroke="#454545" stroke-width="1.5"/>
<path d="M15.2465 1.19346C14.7793 1 14.1862 1 13 1C11.8138 1 11.2207 1 10.7535 1.19346C10.4445 1.32139 10.1637 1.50898 9.92716 1.7455C9.69064 1.98201 9.50306 2.26283 9.37512 2.57188C9.25803 2.85571 9.21094 3.18791 9.19312 3.67029C9.18519 4.01902 9.08875 4.36001 8.91287 4.66124C8.73698 4.96247 8.48742 5.21405 8.18762 5.39236C7.8833 5.56297 7.54059 5.65341 7.19171 5.65519C6.84283 5.65697 6.49923 5.57003 6.19318 5.40254C5.76552 5.17599 5.45624 5.05126 5.1495 5.01053C4.48042 4.92254 3.80379 5.10383 3.26833 5.51455C2.86868 5.82383 2.57085 6.33676 1.97773 7.3639C1.38461 8.39103 1.08678 8.90396 1.02187 9.40671C0.978134 9.73821 1.00013 10.0751 1.08661 10.3981C1.1731 10.7211 1.32236 11.0239 1.52589 11.2891C1.71426 11.5335 1.97773 11.7384 2.38629 11.9955C2.98832 12.3736 3.37524 13.0176 3.37524 13.7278C3.37524 14.438 2.98832 15.082 2.38629 15.4588C1.97773 15.7171 1.71299 15.9221 1.52589 16.1664C1.32236 16.4317 1.1731 16.7345 1.08661 17.0575C1.00013 17.3805 0.978134 17.7174 1.02187 18.0489C1.08806 18.5504 1.38461 19.0646 1.97646 20.0917C2.57085 21.1188 2.8674 21.6318 3.26833 21.941C3.53362 22.1446 3.83641 22.2938 4.15941 22.3803C4.4824 22.4668 4.81927 22.4888 5.15077 22.4451C5.45624 22.4043 5.76552 22.2796 6.19318 22.053C6.49923 21.8856 6.84283 21.7986 7.19171 21.8004C7.54059 21.8022 7.8833 21.8926 8.18762 22.0632C8.80237 22.4196 9.16766 23.0751 9.19312 23.7853C9.21094 24.269 9.25676 24.5999 9.37512 24.8837C9.50306 25.1928 9.69064 25.4736 9.92716 25.7101C10.1637 25.9466 10.4445 26.1342 10.7535 26.2621C11.2207 26.4556 11.8138 26.4556 13 26.4556C14.1862 26.4556 14.7793 26.4556 15.2465 26.2621C15.5555 26.1342 15.8363 25.9466 16.0728 25.7101C16.3094 25.4736 16.4969 25.1928 16.6249 24.8837C16.742 24.5999 16.7891 24.269 16.8069 23.7853C16.8323 23.0751 17.1976 22.4183 17.8124 22.0632C18.1167 21.8926 18.4594 21.8022 18.8083 21.8004C19.1572 21.7986 19.5008 21.8856 19.8068 22.053C20.2345 22.2796 20.5438 22.4043 20.8492 22.4451C21.1807 22.4888 21.5176 22.4668 21.8406 22.3803C22.1636 22.2938 22.4664 22.1446 22.7317 21.941C23.1326 21.633 23.4292 21.1188 24.0223 20.0917C24.6154 19.0646 24.9132 18.5516 24.9781 18.0489C25.0219 17.7174 24.9999 17.3805 24.9134 17.0575C24.8269 16.7345 24.6776 16.4317 24.4741 16.1664C24.2857 15.9221 24.0223 15.7171 23.6137 15.46C23.3155 15.2788 23.0683 15.0248 22.8953 14.7217C22.7224 14.4187 22.6292 14.0767 22.6248 13.7278C22.6248 13.0176 23.0117 12.3736 23.6137 11.9968C24.0223 11.7384 24.287 11.5335 24.4741 11.2891C24.6776 11.0239 24.8269 10.7211 24.9134 10.3981C24.9999 10.0751 25.0219 9.73821 24.9781 9.40671C24.9119 8.90523 24.6154 8.39103 24.0235 7.3639C23.4292 6.33676 23.1326 5.82383 22.7317 5.51455C22.4664 5.31102 22.1636 5.16175 21.8406 5.07527C21.5176 4.98879 21.1807 4.96679 20.8492 5.01053C20.5438 5.05126 20.2345 5.17599 19.8056 5.40254C19.4997 5.56981 19.1563 5.65662 18.8077 5.65484C18.459 5.65306 18.1165 5.56274 17.8124 5.39236C17.5126 5.21405 17.263 4.96247 17.0871 4.66124C16.9113 4.36001 16.8148 4.01902 16.8069 3.67029C16.7891 3.18664 16.7432 2.85571 16.6249 2.57188C16.4969 2.26283 16.3094 1.98201 16.0728 1.7455C15.8363 1.50898 15.5555 1.32139 15.2465 1.19346Z" stroke="#454545" stroke-width="1.5"/>
</svg>
