<svg width="110" height="108" viewBox="0 0 110 108" fill="none" xmlns="http://www.w3.org/2000/svg">
<path d="M76.1569 11.9565C76.1687 9.01461 76.9603 8.11669 78.3781 7.23059C79.3941 6.56897 80.1857 5.83646 80.1739 4.74951C80.1857 3.56804 79.2642 2.80008 78.1181 2.78827C77.0194 2.80008 75.9915 3.53259 75.9442 4.91491H72.5889C72.6479 1.59498 75.1172 0 78.1418 0C81.4381 0 83.7656 1.71313 83.7656 4.63136C83.7656 6.58078 82.7613 7.80951 81.2136 8.74287C79.8785 9.53446 79.2878 10.3024 79.276 11.9565V12.2164H76.1569V11.9565ZM75.8025 15.5718C75.7788 14.4848 76.6768 13.5987 77.7873 13.6105C78.8388 13.5987 79.7486 14.4848 79.7486 15.5718C79.7486 16.6705 78.8388 17.5566 77.7873 17.5566C76.6768 17.5566 75.7788 16.6705 75.8025 15.5718Z" fill="black"/>
<path d="M7.2589 16.3103C8.26709 19.5365 12.0982 16.3103 12.0982 16.3103C14.0339 17.762 13.308 26.1905 12.7032 30.2233C11.7353 34.5786 6.65404 37.3299 3.62947 37.7085C1.53116 37.9711 0 38.5397 0 39.5232V48.5969C0 50.033 0.932477 51.773 2.41965 52.0001C7.86386 52.8313 14.9212 59.2591 18.1474 62.2836C23.4706 67.1229 27.6243 79.6244 29.0358 85.2703C30.2456 90.3359 31.6571 97.5702 31.4554 102.208C29.5197 106.563 33.8751 106.442 36.2947 105.837C38.7144 101.966 36.4012 95.5016 36.8997 92.5292C37.5046 88.9221 37.5046 87.309 38.7144 87.1074C43.0698 87.5913 43.1504 97.7718 42.9488 102.813C41.0131 106.2 44.1586 107.047 45.9733 107.047C50.3287 107.531 50.2077 93.1341 49.6028 85.8752H62.306C65.6935 87.8109 66.1371 97.9734 65.9354 102.813C63.5158 106.2 66.9436 106.644 68.96 106.442C73.1944 105.459 72.3878 93.1341 71.3796 85.8752H75.614L78.0337 101.829C77.4288 103.644 74.4042 104.854 77.4288 106.442C83.4779 108.483 83.8812 105.232 84.6877 102.813C85.6556 98.4574 84.2844 74.3819 83.4779 62.8885C91.7047 65.7921 100.617 60.4689 104.045 57.4443C108.4 55.0247 105.86 54.0165 104.045 53.8148L108.884 48.9755C110.336 47.5238 109.086 47.1608 108.279 47.1608H105.255C105.739 45.709 105.86 40.91 105.86 38.692C105.376 34.8206 104.448 36.2724 104.045 37.4822C98.7217 52.484 84.0828 54.2181 77.4288 53.2099C62.9109 52.726 58.4749 43.3297 58.0716 38.692C58.0716 28.0456 52.829 11.2693 50.2077 4.21201C47.4326 -3.25952 39.9242 0.808873 39.9242 4.21201V16.3103H24.1965C24.1965 12.9227 22.9867 8.67269 21.1719 7.84149C8.90936 2.22503 6.25072 13.0841 7.2589 16.3103Z" fill="black"/>
<path d="M29.6407 29.8447C29.6407 33.5196 26.6616 36.4987 22.9867 36.4987C19.3117 36.4987 16.3326 33.5196 16.3326 29.8447C16.3326 26.1697 19.3117 23.1906 22.9867 23.1906C26.6616 23.1906 29.6407 26.1697 29.6407 29.8447Z" fill="#FEFEFE"/>
<path d="M47.7881 29.8447C47.7881 33.5196 44.809 36.4987 41.134 36.4987C37.4591 36.4987 34.48 33.5196 34.48 29.8447C34.48 26.1697 37.4591 23.1906 41.134 23.1906C44.809 23.1906 47.7881 26.1697 47.7881 29.8447Z" fill="#FEFEFE"/>
<path d="M44.1586 27.425C44.1586 29.7636 42.2628 31.6594 39.9242 31.6594C37.5856 31.6594 35.6898 29.7636 35.6898 27.425C35.6898 25.0864 37.5856 23.1906 39.9242 23.1906C42.2628 23.1906 44.1586 25.0864 44.1586 27.425Z" fill="black"/>
<path d="M26.0112 27.425C26.0112 29.7636 24.1154 31.6594 21.7768 31.6594C19.4383 31.6594 17.5425 29.7636 17.5425 27.425C17.5425 25.0864 19.4383 23.1906 21.7768 23.1906C24.1154 23.1906 26.0112 25.0864 26.0112 27.425Z" fill="black"/>
</svg>
