<svg width="22" height="22" viewBox="0 0 22 22" fill="none" xmlns="http://www.w3.org/2000/svg">
<path d="M11.4981 14.6031L18.7994 6.94027C18.9213 6.81241 18.9893 6.64254 18.9893 6.46589C18.9893 6.28925 18.9213 6.11938 18.7994 5.99152L18.7911 5.98327C18.732 5.92107 18.6609 5.87154 18.5821 5.8377C18.5032 5.80385 18.4184 5.7864 18.3326 5.7864C18.2468 5.7864 18.1619 5.80386 18.083 5.8377C18.0042 5.87154 17.9331 5.92107 17.874 5.98327L10.999 13.1993L4.12675 5.98327C4.06767 5.92107 3.99654 5.87154 3.91771 5.8377C3.83887 5.80386 3.75398 5.7864 3.66819 5.7864C3.5824 5.7864 3.49751 5.80386 3.41867 5.8377C3.33984 5.87154 3.26872 5.92107 3.20963 5.98327L3.20138 5.99152C3.07949 6.11938 3.0115 6.28925 3.0115 6.46589C3.0115 6.64254 3.07949 6.81241 3.20138 6.94027L10.5026 14.6031C10.5668 14.6705 10.6441 14.7242 10.7296 14.7608C10.8152 14.7975 10.9073 14.8164 11.0004 14.8164C11.0935 14.8164 11.1856 14.7975 11.2711 14.7608C11.3567 14.7242 11.4339 14.6705 11.4981 14.6031Z" fill="#545454"/>
</svg>
