<svg width="204" height="24" viewBox="0 0 204 24" fill="none" xmlns="http://www.w3.org/2000/svg">
<path d="M0.635742 18V0.324219H7.39844C11.2314 0.324219 13.1357 2.27734 13.1357 4.91406C13.1357 7.0625 11.7686 8.25879 10.0352 8.67383V8.84473C11.915 8.94238 13.8193 10.5049 13.8193 13.1904C13.8193 15.9492 11.8418 18 7.78906 18H0.635742ZM7.30078 15.3389C9.62012 15.3389 10.5967 14.3379 10.5967 12.9463C10.5967 11.3594 9.35156 10.1387 7.37402 10.1387H3.80957V15.3389H7.30078ZM7.00781 7.84375C8.69238 7.84375 9.96191 6.86719 9.96191 5.30469C9.96191 3.9375 8.98535 2.96094 7.08105 2.96094H3.80957V7.84375H7.00781ZM22.0469 18.2686C18.1895 18.2686 15.6992 15.5342 15.6992 11.4326C15.6992 7.30664 18.1895 4.57227 22.0469 4.57227C25.9287 4.57227 28.3945 7.30664 28.3945 11.4326C28.3945 15.5342 25.9287 18.2686 22.0469 18.2686ZM22.0713 15.7783C24.1953 15.7783 25.2451 13.8496 25.2451 11.4082C25.2451 8.99121 24.1953 7.03809 22.0713 7.03809C19.8984 7.03809 18.8486 8.99121 18.8486 11.4082C18.8486 13.8496 19.8984 15.7783 22.0713 15.7783ZM30.8115 18V4.74316H33.79V6.98926H33.9609C34.498 5.47559 35.8408 4.57227 37.5986 4.57227C39.4053 4.57227 40.6748 5.47559 41.1875 6.98926H41.334C41.9199 5.52441 43.3848 4.57227 45.3135 4.57227C47.7305 4.57227 49.4395 6.13477 49.4395 9.08887V18H46.3389V9.57715C46.3389 7.91699 45.3379 7.18457 44.0684 7.18457C42.5303 7.18457 41.6514 8.23438 41.6514 9.72363V18H38.624V9.45508C38.624 8.08789 37.6963 7.18457 36.3779 7.18457C35.0352 7.18457 33.9365 8.2832 33.9365 9.94336V18H30.8115ZM52.5645 0.324219H56.4707L61.7197 13.166H61.9395L67.1885 0.324219H71.0947V18H68.043V5.8418H67.8721L62.9648 17.9512H60.6943L55.7871 5.79297H55.6406V18H52.5645V0.324219ZM80.1035 18.2686C76.0996 18.2686 73.6582 15.6074 73.6582 11.457C73.6582 7.35547 76.1484 4.57227 79.9326 4.57227C83.1797 4.57227 85.9873 6.59863 85.9873 11.2617V12.2383H76.7344C76.771 14.4966 78.1016 15.8271 80.1279 15.8271C81.4951 15.8271 82.4229 15.2412 82.8135 14.46H85.8652C85.3037 16.7549 83.1797 18.2686 80.1035 18.2686ZM76.7588 10.1143H83.0088C82.9844 8.30762 81.7881 6.98926 79.9814 6.98926C78.1016 6.98926 76.8564 8.41748 76.7588 10.1143ZM94.1904 18.2686C90.333 18.2686 87.8428 15.5342 87.8428 11.4326C87.8428 7.30664 90.333 4.57227 94.1904 4.57227C98.0723 4.57227 100.538 7.30664 100.538 11.4326C100.538 15.5342 98.0723 18.2686 94.1904 18.2686ZM94.2148 15.7783C96.3389 15.7783 97.3887 13.8496 97.3887 11.4082C97.3887 8.99121 96.3389 7.03809 94.2148 7.03809C92.042 7.03809 90.9922 8.99121 90.9922 11.4082C90.9922 13.8496 92.042 15.7783 94.2148 15.7783ZM106.08 10.2363V18H102.955V4.74316H105.934V6.98926H106.104C106.715 5.5 108.058 4.57227 110.035 4.57227C112.794 4.57227 114.601 6.37891 114.576 9.55273V18H111.476V10.041C111.476 8.25879 110.523 7.20898 108.888 7.20898C107.228 7.20898 106.08 8.30762 106.08 10.2363ZM123.341 23.249C119.825 23.249 117.604 21.6865 117.384 19.1963H120.484C120.704 20.3438 121.803 20.9053 123.39 20.9053C125.245 20.9053 126.466 20.0996 126.466 18.1465V15.6074H126.319C125.831 16.584 124.781 17.8047 122.486 17.8047C119.435 17.8047 117.018 15.583 117.018 11.2617C117.018 6.8916 119.435 4.57227 122.511 4.57227C124.854 4.57227 125.831 5.96387 126.319 6.91602H126.466V4.74316H129.542V18.2197C129.542 21.6133 126.93 23.249 123.341 23.249ZM123.341 15.3633C125.343 15.3633 126.49 13.8496 126.49 11.3105C126.49 8.7959 125.367 7.11133 123.341 7.11133C121.266 7.11133 120.191 8.89355 120.191 11.3105C120.191 13.752 121.29 15.3633 123.341 15.3633ZM138.6 18V0.324219H141.773V15.3145H149.586V18H138.6ZM167.188 9.16211C167.188 14.875 163.722 18.2441 159.083 18.2441C154.444 18.2441 150.978 14.8506 150.978 9.16211C150.978 3.44922 154.444 0.0800781 159.083 0.0800781C163.722 0.0800781 167.188 3.44922 167.188 9.16211ZM163.99 9.16211C163.99 5.13379 161.964 2.93652 159.083 2.93652C156.202 2.93652 154.176 5.13379 154.176 9.16211C154.176 13.1904 156.202 15.3877 159.083 15.3877C161.964 15.3877 163.99 13.1904 163.99 9.16211ZM181.861 5.96387C181.3 4.08398 179.835 2.93652 177.687 2.93652C174.83 2.93652 172.779 5.1582 172.779 9.1377C172.779 13.166 174.806 15.3877 177.76 15.3877C180.421 15.3877 182.13 13.7764 182.179 11.2617H178.077V8.74707H185.255V10.8711C185.255 15.4121 182.13 18.2441 177.76 18.2441C172.877 18.2441 169.581 14.7773 169.581 9.16211C169.581 3.49805 173.023 0.0800781 177.662 0.0800781C181.568 0.0800781 184.571 2.49707 185.108 5.96387H181.861ZM203.907 9.16211C203.907 14.875 200.44 18.2441 195.802 18.2441C191.163 18.2441 187.696 14.8506 187.696 9.16211C187.696 3.44922 191.163 0.0800781 195.802 0.0800781C200.44 0.0800781 203.907 3.44922 203.907 9.16211ZM200.709 9.16211C200.709 5.13379 198.683 2.93652 195.802 2.93652C192.921 2.93652 190.895 5.13379 190.895 9.16211C190.895 13.1904 192.921 15.3877 195.802 15.3877C198.683 15.3877 200.709 13.1904 200.709 9.16211Z" fill="black"/>
</svg>
